<?xml version="1.0" encoding="UTF-8" standalone="no"?>
<svg
   version="1.1"
   width="841.88977pt"
   height="595.27557pt"
   id="svg6"
   viewBox="0 0 841.88977 595.27557"
   sodipodi:docname="bqhio-8pjrk.cdr"
   xmlns:inkscape="http://www.inkscape.org/namespaces/inkscape"
   xmlns:sodipodi="http://sodipodi.sourceforge.net/DTD/sodipodi-0.dtd"
   xmlns="http://www.w3.org/2000/svg"
   xmlns:svg="http://www.w3.org/2000/svg">
  <defs
     id="defs6" />
  <sodipodi:namedview
     id="namedview6"
     pagecolor="#ffffff"
     bordercolor="#000000"
     borderopacity="0.25"
     inkscape:showpageshadow="2"
     inkscape:pageopacity="0.0"
     inkscape:pagecheckerboard="0"
     inkscape:deskcolor="#d1d1d1"
     inkscape:document-units="pt" />
  <g
     id="Layer1000">
    <path
       d="m 129.6964,187.689 c 3.7026,10.0196 6.9386,20.2144 9.5082,30.6587 2.1294,8.6544 3.8013,17.4804 4.902,26.5203 0.5876,9.4519 -0.1006,18.4465 -4.7086,24.8287 -2.8579,3.9583 -7.2244,6.9117 -13.7288,8.3455 -15.8389,3.4917 -34.4631,-2.7278 -49.3914,-7.6527 -7.0183,-2.3156 -14.1234,-4.9774 -21.3353,-8.0666 v -15.6282 c 9.4714,4.0144 18.9054,8.1983 28.7946,11.0004 6.0497,1.7141 19.2889,6.4604 30.0748,7.3298 5.267,0.4246 9.9496,-0.0757 12.9228,-2.3046 9.7345,-7.2977 -1.3952,-41.246 -4.1564,-50.3047 -2.6039,-8.5436 -5.6373,-16.7905 -9.1188,-24.7266 z m -74.7539,52.5982 c 9.3016,4.0862 18.5715,7.6893 27.8031,10.7263 7.0061,2.3046 15.3847,5.4689 23.4898,6.7851 3.5518,0.5768 7.0515,0.7988 10.3595,0.4385 2.0637,-0.2245 3.4515,-0.7376 4.4113,-1.5568 1.7107,-1.4607 2.0619,-3.8957 2.4579,-7.4112 1.5004,-13.3211 -3.8474,-28.1934 -7.9398,-40.6159 -2.3414,-7.1071 -5.0562,-14.1075 -8.2726,-20.9642 h -7.7556 c 3.9347,8.3812 7.3417,16.8945 10.1656,25.5535 2.0891,6.4074 9.2026,31.2074 6.336,37.5216 -3.5391,1.9054 -16.6516,-1.0485 -19.6331,-1.8794 -5.5519,-1.5471 -11.0063,-3.6 -16.0948,-5.5032 -8.5317,-3.1909 -16.9472,-6.8485 -25.3273,-10.6458 z"
       style="fill:#009035;fill-rule:evenodd"
       id="path1" />
    <path
       d="m 193.3466,187.689 c -3.6365,8.3083 -6.5522,16.617 -8.9061,24.9253 -2.4735,8.7324 -4.3268,17.4651 -5.743,26.1969 -0.773,4.7696 -1.1018,9.3034 -0.5372,14.1503 0.8371,7.1853 3.0799,8.2616 10.3703,9.1072 4.8098,0.5578 9.3515,-0.2506 13.9943,-1.3411 9.3153,-2.1898 18.6308,-4.7653 27.9454,-8.0416 7.6326,-2.6844 15.2651,-5.84 22.8974,-9.6389 v 16.0078 c -8.3602,3.8239 -16.6496,7.0049 -24.8774,9.6389 -6.8088,2.1793 -14.6684,4.7869 -22.6077,6.3873 -7.458,1.5032 -14.9868,2.118 -21.7803,0.6545 -7.2431,-1.5602 -12.2542,-4.1547 -15.5982,-8.4577 -2.4404,-3.1399 -3.9932,-7.1901 -4.8776,-12.4118 -2.5937,-15.3142 2.7967,-32.1891 6.9276,-46.7688 1.904,-6.7201 4.1193,-13.5125 6.7847,-20.4083 z m 4.995,0 c -4.6389,10.902 -8.4305,21.7664 -11.0126,32.5749 -1.5259,6.389 -3.3545,14.1347 -3.8203,21.4747 -0.199,3.1405 -0.7857,9.4308 1.3085,12.1504 1.9307,2.5058 7.6898,2.3536 10.4219,2.2269 7.944,-0.3693 17.0226,-3.2862 23.3226,-5.235 10.019,-3.0997 21.5977,-7.6714 34.806,-13.7826 v -8.0363 c -7.8307,3.9408 -16.4126,7.6989 -26.2919,11.2116 -5.1775,1.8409 -10.7555,3.9799 -16.4146,5.6036 -3.3967,0.9742 -15.2169,3.7102 -19.0992,1.6279 -1.156,-4.5428 -0.8062,-9.8881 0.2364,-15.3473 1.5738,-8.2421 4.7273,-16.7449 6.6602,-23.1398 2.2774,-7.5348 5.7266,-14.5315 9.2586,-21.329 z"
       style="fill:#f07c00;fill-rule:evenodd"
       id="path2" />
    <path
       d="m 54.9425,300.6125 c 9.2061,-3.5671 18.2761,-6.45 27.2149,-8.6786 8.7885,-2.1909 18.1545,-4.341 27.4626,-4.8254 5.2217,-0.2718 10.4258,-0.0193 15.4993,1.0432 4.2763,0.8954 7.6875,2.1636 10.3972,4.2105 3.071,2.3199 5.2418,5.6407 6.7495,10.5537 3.0255,9.8609 1.0948,19.4324 -0.9904,29.2048 -1.305,6.1163 -2.8542,12.2332 -4.6876,18.3492 -2.7117,9.0468 -6.0466,18.0936 -10.1362,27.1403 h -16.2255 c 5.3978,-13.4586 11.2176,-26.9178 14.9114,-40.3764 2.0846,-7.5951 4.6874,-17.4756 4.0997,-25.4483 -0.261,-3.5405 -1.1641,-6.3487 -2.9443,-7.9404 -3.2309,-2.8894 -9.4071,-3.026 -15.1909,-2.4936 -3.4704,0.3194 -6.8,0.8801 -9.2676,1.2308 -7.069,1.0048 -13.193,2.6385 -18.5456,4.2508 -12.4189,3.7409 -20.922,6.5112 -28.3465,10.0049 z m 0,22.5805 c 8.8444,-3.9297 17.5465,-7.3605 26.0093,-9.9547 10.8034,-3.3117 24.3967,-6.5775 35.7727,-4.9352 2.5863,0.3731 4.1048,0.9562 5,1.9633 1.1512,1.2952 1.2722,3.2927 1.3085,6.4494 0.1335,11.5546 -3.8809,24.0871 -7.7049,34.8596 -3.2272,9.0902 -6.9908,17.6434 -10.9159,26.0348 h -8.1128 c 3.6717,-7.3862 6.9959,-14.9034 9.9357,-22.5643 2.1532,-5.6115 11.9141,-33.935 9.2623,-40.229 -4.8904,-2.9982 -29.8432,4.068 -34.5924,5.6639 -8.7077,2.9262 -17.3514,6.5642 -25.9625,10.5545 z"
       style="fill:#102a83;fill-rule:evenodd"
       id="path3" />
    <path
       d="m 178.7803,308.2204 c 2.6688,16.704 5.3376,33.4088 8.0067,50.1128 0.1329,0.8337 0.1494,1.2495 0.29,1.3125 0.1406,0.0629 0.4062,-0.226 1.0372,-0.8008 3.5036,-3.1924 7.0075,-6.3856 10.5114,-9.5772 1.2206,-1.112 2.8809,-1.8952 4.536,-2.0568 2.2737,-0.2222 3.2292,0.8952 4.6412,2.3636 6.3258,6.5752 12.6513,13.1507 18.9768,19.726 4.9578,-4.8677 9.9156,-9.7353 14.8734,-14.603 -6.8429,-6.9296 -13.6863,-13.8591 -20.5294,-20.789 -1.008,-1.0205 -1.8524,-2.0511 -1.9879,-3.5643 -0.1415,-1.5738 0.4504,-2.5344 1.5063,-3.545 3.3781,-3.2343 6.7567,-6.4686 10.1347,-9.7033 0.9879,-0.9453 1.4681,-1.3373 1.3711,-1.5528 -0.0966,-0.2151 -0.7713,-0.2537 -2.0919,-0.4929 -16.2834,-2.9515 -32.567,-5.9074 -48.8509,-8.8555 -1.5307,-0.2769 -2.179,-0.4563 -2.516,-0.2069 -0.277,0.205 -0.1219,0.8932 0.0913,2.2326 z m -8.697,-3.6516 c 3.6482,20.91 7.2961,41.8215 10.9445,62.7318 0.254,1.4596 0.5239,2.9968 1.7266,4.0162 1.7442,1.4794 3.0898,0.9419 4.455,-0.3864 4.7687,-4.6398 9.5377,-9.2795 14.3061,-13.9193 0.5791,-0.5139 1.1024,-0.7463 1.5837,-0.7684 0.5457,-0.025 1.0378,0.2194 1.497,0.6284 5.9074,6.0387 11.8151,12.0779 17.7225,18.1165 1.3439,1.3737 2.6861,3.1241 4.7801,3.2049 2.1509,0.0827 3.594,-1.3465 4.998,-2.7193 5.4547,-5.3314 10.91,-10.6637 16.3644,-15.9953 1.1237,-1.0976 2.2731,-2.1685 2.3397,-3.8682 0.0874,-2.2246 -1.3334,-3.5833 -2.7447,-5.0227 -6.1609,-6.285 -12.3222,-12.5702 -18.4833,-18.8555 -0.5829,-0.5941 -1.0514,-0.9901 -1.0316,-1.9021 0.0179,-0.8319 0.4411,-1.2639 0.9975,-1.7844 4.394,-4.1068 8.7886,-8.2136 13.1826,-12.3202 1.4448,-1.3501 2.0795,-2.8213 1.3016,-4.8829 -0.6913,-1.8346 -2.0789,-2.1493 -3.763,-2.4322 -20.8023,-3.5039 -41.6055,-7.0072 -62.4078,-10.5106 -2.1679,-0.3651 -5.0539,-1.1157 -7.0467,0.0738 -2.1602,1.29 -1.0712,4.5909 -0.7222,6.5959 z"
       style="fill:#ffec00;fill-rule:evenodd"
       id="path4" />
    <path
       d="m 359.4186,371.4199 h -20.9577 l -7.0406,9.9496 h -11.4764 l 31.2571,-42.7294 h 11.4157 l 9.2367,42.7294 h -10.5917 z m -1.3422,-6.605 -3.4665,-17.2012 -12.7876,17.2012 z m 20.1096,16.5546 8.1816,-42.7294 h 8.7746 l -6.7966,35.5864 23.0737,0.0703 -1.4955,7.0024 z m 98.8792,0 8.1816,-42.7294 h 8.7747 l -8.1516,42.7294 z m 67.989,0 h -12.3316 l -17.9626,-28.7118 -6.5775,28.7118 h -11.1937 l 10.0944,-42.7294 h 11.7261 l 18.4161,28.5925 6.2788,-28.5925 h 11.2224 z m 41.6279,0 h -10.8944 l 10.309,-42.7294 h 21.7769 c 7.3052,0 16.9535,0.3455 17.3721,9.4354 0.4431,9.6145 -8.5226,15.745 -17.0889,16.7097 -1.7119,0.1927 -4.951,0.2885 -9.7027,0.2885 h -8.2454 z m 5.4073,-23.3793 h 4.2172 c 5.8121,0 9.6888,-0.2933 11.6087,-0.8756 1.9173,-0.5814 3.4225,-1.512 4.4736,-2.7955 1.063,-1.2833 1.5599,-2.6861 1.4888,-4.2282 -0.0474,-1.0247 -0.3736,-1.8703 -0.9774,-2.5268 -0.6044,-0.6667 -1.4264,-1.1398 -2.4738,-1.4425 -1.0505,-0.3036 -3.3642,-0.4578 -6.9432,-0.4578 h -8.248 z m 110.6768,23.3793 h -10.6203 l 3.0634,-18.3152 -15.0432,-24.4142 h 11.3304 l 7.6048,12.0676 2.6385,4.4853 15.3428,-16.5529 h 11.9146 l -23.41,24.4142 z m -283.5666,0 8.1816,-42.7294 h 8.7747 l -6.7967,35.5864 23.0738,0.0703 -1.4956,7.0024 z m 239.5006,-9.9496 h -20.9576 l -7.0407,9.9496 h -11.4764 l 31.2571,-42.7294 h 11.4157 l 9.2367,42.7294 h -10.5917 z m -1.3422,-6.605 -3.4665,-17.2012 -12.7876,17.2012 z"
       style="fill:#102a83;fill-rule:evenodd"
       id="path5" />
    <path
       d="m 351.3713,255.1346 c -15.2903,0 -30.5807,0 -45.871,0 -3.9524,22.416 -7.905,44.8321 -11.8577,67.2482 -2.7856,0 -5.5712,0 -8.3568,0 4.1752,-23.6778 8.35,-47.3553 12.5249,-71.0328 -4.2177,0 -8.4356,0 -12.6536,0 -4.1748,23.6775 -8.3497,47.355 -12.5248,71.0328 -0.2761,1.5673 -0.5525,3.1346 -0.8289,4.7019 -0.1607,0.911 0.3373,1.476 1.038,1.817 0.857,0.4167 1.8029,0.468 2.7349,0.468 65.27,0 130.5394,0 195.8094,0 9.3209,-15.7434 18.642,-31.4867 27.9632,-47.2298 5.6194,15.7431 11.2388,31.4864 16.8582,47.2298 22.5547,0 45.1097,0 67.6647,0 5.3467,-3.473 10.6937,-6.9458 16.0407,-10.4185 3.6666,3.4727 7.3332,6.9455 11.0001,10.4185 45.8277,0 91.6555,0 137.4835,0 2.4046,0 4.2709,-0.3169 5.396,-1.3763 1.4468,-1.362 1.8456,-3.7751 2.4616,-6.4445 4.7217,-20.4579 9.4462,-40.9161 14.1693,-61.3738 4.2352,0 8.4704,0 12.7057,0 0.2616,-2.2966 0.5236,-4.5932 0.7855,-6.8896 -3.9671,0 -7.9339,0 -11.9007,0 2.0029,-8.6766 4.0062,-17.3531 6.0094,-26.0297 -5.8657,0 -11.7314,0 -17.5969,0 -2.0032,8.6766 -4.0065,17.3531 -6.0094,26.0297 -15.7167,0 -31.4334,0 -47.1501,0 -0.4907,2.2964 -0.9811,4.593 -1.4715,6.8896 15.677,0 31.354,0 47.031,0 -4.5632,19.7654 -8.7752,39.5309 -13.3384,59.2966 -17.6887,0 -35.7287,0 -53.4175,0 4.0037,-22.7073 8.0076,-45.4145 12.0116,-68.1217 9.7066,-8.0314 19.4136,-16.0628 29.1206,-24.0942 -8.2908,0 -16.5816,0 -24.8721,0 -10.5298,8.6766 -21.0597,17.3531 -31.5895,26.0297 -0.669,7.4699 -1.338,14.9397 -2.007,22.4099 3.0697,-2.5356 6.1393,-5.0712 9.2089,-7.6065 -3.02,17.1275 -6.04,34.255 -9.06,51.3828 -14.5888,0 -29.1776,0 -43.7664,0 -3.4787,-3.3089 -6.9574,-6.6175 -10.4358,-9.9261 15.1586,-9.9902 30.3171,-19.9803 45.476,-29.9702 0.3169,-4.2553 0.6338,-8.5107 0.9507,-12.7661 -14.004,0 -28.008,0 -42.0117,0 0.7583,-4.5079 1.5165,-9.0159 2.2748,-13.5238 15.6541,0 31.3081,0 46.9621,0 0.3997,-4.0232 0.7997,-8.0464 1.1997,-12.0696 -15.3406,0 -30.6808,0 -46.0211,0 0.758,-3.8778 1.5163,-7.7556 2.2745,-11.6334 -5.6641,0 -11.328,0 -16.992,0 -0.6244,3.8778 -1.2489,7.7556 -1.8731,11.6334 -15.8771,0 -31.7543,0 -47.6311,0 -0.5763,4.0232 -1.1526,8.0464 -1.7286,12.0696 15.7842,0 31.5683,0 47.3525,0 -0.7583,4.5079 -1.5162,9.0159 -2.2742,13.5238 -16.1893,0 -32.3785,0 -48.5677,0 -0.3549,2.5206 -0.7098,5.0412 -1.0644,7.5617 29.0761,0 58.1522,0 87.2285,0 -12.4429,8.2015 -24.8859,16.403 -37.3288,24.6047 -7.3588,-6.8507 -14.7175,-13.7012 -22.0763,-20.5517 -8.3846,0 -16.7692,0 -25.1535,0 10.8819,9.9723 21.7639,19.9449 32.6461,29.9174 -7.0022,4.6803 -14.004,9.3609 -21.0059,14.0414 -12.7998,0 -25.5997,0 -38.3992,0 -5.0397,-14.6531 -10.0795,-29.3059 -15.1189,-43.9588 10.6583,0 21.3168,0 31.9754,0 0.3126,-2.272 0.6253,-4.5439 0.9382,-6.8159 -13.9147,0 -27.8294,0 -41.7441,0 2.4083,-4.1202 4.8166,-8.2403 7.225,-12.3605 11.5954,0 23.1908,0 34.7864,0 0.3124,-2.6325 0.6248,-5.265 0.9375,-7.8976 -5.709,0 -11.4177,0 -17.1264,0 2.4973,-5.2401 4.9949,-10.4802 7.4925,-15.7204 4.9077,0 9.8156,0 14.7235,0 0,-2.4259 0,-4.8517 0,-7.2779 -8.2083,0 -16.4163,0 -24.6243,0 -3.8356,7.9767 -7.6711,15.9531 -11.5067,23.9295 -3.8355,0 -7.6708,0 -11.5061,0 -3.7463,-7.9764 -7.4925,-15.9528 -11.2388,-23.9295 -23.9108,0 -47.8213,0 -71.7318,0 0,2.4262 0,4.852 0,7.2779 1.2033,0 2.4066,0 3.6099,0 -3.388,19.2138 -6.7757,38.4276 -10.1634,57.6414 -10.1211,0 -20.2422,0 -30.3633,0 2.2414,-12.7122 4.4827,-25.4245 6.7244,-38.1364 -5.8964,0 -11.7927,0 -17.6888,0 7.8446,-6.5016 15.6892,-13.0031 23.5341,-19.505 0,-2.4259 0,-4.8517 0,-7.2779 -34.9917,0 -69.9829,0 -104.9746,0 -1.1418,0 -2.2099,0.1122 -3.0245,0.6332 -0.9701,0.62 -1.2258,1.5517 -1.4097,2.5971 -0.6486,3.6783 -1.2972,7.3565 -1.946,11.0345 4.2179,0 8.4359,0 12.6536,0 0.4107,-2.329 0.8215,-4.6579 1.2319,-6.9869 24.5115,0 49.0227,0 73.5338,0 -7.5818,6.5019 -15.1636,13.0034 -22.7452,19.505 z m 102.8583,67.2482 15.2969,-86.7532 H 484.63 l 7.4367,15.7204 h -19.6058 l -0.9108,7.8976 h 26.8716 l -7.1663,12.3605 h -24.6622 l -1.1634,6.8159 h 22.3098 l -25.4197,43.9588 c -2.6966,0 -5.3937,0 -8.0903,0 z m -69.9792,-22.1249 h 60.2538 l -4.0142,22.7653 -60.1409,-0.6404 z m 48.2468,-21.8339 -0.0734,0.4167 -2.5444,14.4303 h 15.8567 l 2.6178,-14.847 z m 3.6448,-20.6694 -2.4429,13.8535 h 15.8567 l 2.4429,-13.8535 z m 1.3521,-7.6683 h 15.8567 l 2.5489,-14.4567 H 440.043 Z m -126.377,50.1716 -3.9013,22.1249 h 23.862 l 3.9013,-22.1249 z m 1.2319,-6.9869 h 23.8621 l 2.2586,-12.8092 h -23.862 z m 3.5419,-20.0871 h 23.8621 l 1.8992,-10.7714 h -23.8621 z m 37.8564,0 h 21.2055 l 1.8992,-10.7714 h -21.2054 z m -1.2832,7.2779 -2.2587,12.8092 h 21.2055 l 2.2586,-12.8092 z m -3.4906,19.7961 -3.9013,22.1249 h 21.2054 l 3.9013,-22.1249 z m 361.1242,-33.4486 c 3.3957,0 6.7913,0 10.1872,0 2.9897,8.7514 5.9797,17.5034 8.9697,26.2548 0.1244,0.3662 0.3115,0.6908 0.6287,0.9281 0.3458,0.2582 0.7534,0.3398 1.1744,0.3398 2.054,0 4.1074,0 6.1611,0 0.1573,3.1377 0.3146,6.2754 0.4722,9.4133 -3.7627,0 -7.5254,0 -11.2884,0 -1.3127,0 -2.2212,-0.3773 -2.9117,-1.0516 -0.612,-0.5976 -1.0525,-1.4284 -1.4517,-2.4358 -3.9806,-11.1496 -7.9611,-22.2991 -11.9415,-33.4486 z"
       style="fill:#102a83;fill-rule:evenodd"
       id="path6" />
  </g>
</svg>
