<?xml version="1.0" encoding="UTF-8"?>
<svg version="1.1" xmlns="http://www.w3.org/2000/svg" width="454" height="296">
<path d="M0 0 C1.70299004 -0.01073296 1.70299004 -0.01073296 3.44038391 -0.02168274 C4.69741623 -0.02437164 5.95444855 -0.02706055 7.24957275 -0.02983093 C9.22282784 -0.03968773 9.22282784 -0.03968773 11.23594666 -0.04974365 C15.6158017 -0.07083569 19.99565725 -0.08116007 24.37554932 -0.09111023 C25.88496163 -0.09515777 27.39437377 -0.09927469 28.90378571 -0.10346031 C36.00462023 -0.12253392 43.1054443 -0.13675273 50.20629954 -0.14507228 C58.38421575 -0.15481251 66.56185895 -0.18103803 74.7396791 -0.22157317 C81.06851472 -0.25185709 87.39727275 -0.26655326 93.72617936 -0.26985329 C97.50104507 -0.27219255 101.27561992 -0.28100257 105.05040741 -0.30631447 C108.61276828 -0.32981179 112.17465144 -0.33374298 115.73707008 -0.32355309 C117.64662939 -0.32283121 119.5561656 -0.34177589 121.46562195 -0.36161804 C133.07171346 -0.29268799 144.89535349 2.12446485 153.76617432 10.14717102 C153.76617432 10.80717102 153.76617432 11.46717102 153.76617432 12.14717102 C154.42617432 12.14717102 155.08617432 12.14717102 155.76617432 12.14717102 C155.76617432 12.80717102 155.76617432 13.46717102 155.76617432 14.14717102 C156.42617432 14.14717102 157.08617432 14.14717102 157.76617432 14.14717102 C158.75617432 15.13717102 158.75617432 15.13717102 159.76617432 16.14717102 C160.20445557 15.6392804 160.64273682 15.13138977 161.09429932 14.60810852 C167.67361238 7.46714678 176.49749728 1.51499614 186.47374725 1.01015663 C187.51637978 1.00458433 188.5590123 0.99901203 189.63323975 0.99327087 C190.83303467 0.98467041 192.03282959 0.97606995 193.26898193 0.96720886 C194.58225464 0.96294891 195.89552734 0.95868896 197.24859619 0.95429993 C198.6484192 0.94639429 200.0482402 0.93812506 201.44805908 0.92951965 C206.04366115 0.90334253 210.63927211 0.88799159 215.23492432 0.87373352 C216.82082626 0.86837118 218.40672816 0.86299366 219.99263 0.85760117 C226.59466514 0.83597455 233.19669788 0.81724195 239.79875946 0.80597878 C249.23751588 0.78976699 258.67585889 0.75665454 268.11445951 0.69957793 C274.76265563 0.66075733 281.41074176 0.64133154 288.05904818 0.63605821 C292.02337434 0.63241992 295.98725914 0.62056332 299.95146179 0.58795547 C303.68792596 0.55766204 307.42368669 0.55163749 311.1602478 0.56333923 C313.16661208 0.56366175 315.17293434 0.53933607 317.17913818 0.51396179 C329.44846352 0.59745822 338.78167032 4.22256364 347.63726807 12.73701477 C350.72780507 16.2358429 352.82831505 19.92425271 354.76617432 24.14717102 C355.11679932 24.76978821 355.46742432 25.3924054 355.82867432 26.03388977 C357.80620189 30.49156652 357.89351812 35.28276072 357.92007446 40.09616089 C357.92867493 41.26360336 357.93727539 42.43104584 357.94613647 43.63386536 C357.9525264 45.53452759 357.9525264 45.53452759 357.95904541 47.47358704 C357.96695644 48.8326742 357.975226 50.19175931 357.98382568 51.55084229 C358.00993397 56.00090053 358.02534389 60.45096764 358.03961182 64.90107727 C358.04497644 66.43928977 358.05035395 67.97750223 358.05574417 69.51571465 C358.07735806 75.91966852 358.0960904 82.32361999 358.10736656 88.72760105 C358.12357981 97.8719102 358.15671049 107.01579282 358.21376741 116.15994126 C358.25261325 122.6077703 358.27201657 129.05548597 358.27728713 135.50342888 C358.28092113 139.34536144 358.29273175 143.18683794 358.32538986 147.02864265 C358.35572953 150.64941337 358.36169191 154.26945823 358.3500061 157.89032936 C358.34968436 159.83088159 358.37397713 161.7713908 358.39938354 163.71177673 C358.32027672 175.00159437 355.55136786 185.26354575 347.51617432 193.50654602 C346.93867432 194.04795227 346.36117432 194.58935852 345.76617432 195.14717102 C345.27117432 195.62670227 344.77617432 196.10623352 344.26617432 196.60029602 C334.22525733 205.65894939 322.47898191 206.44829154 309.54229736 206.42182922 C308.24352661 206.42694016 306.94475586 206.43205109 305.60662842 206.43731689 C302.06718328 206.45062558 298.52784545 206.45129459 294.98838019 206.4487536 C292.02156918 206.4476781 289.05477937 206.45258209 286.08797294 206.45735902 C279.08135767 206.46842661 272.07479603 206.46890747 265.06817627 206.46284485 C257.86827899 206.45681021 250.66857738 206.46910935 243.46871346 206.49041492 C237.26201381 206.50809825 231.05537606 206.51402163 224.84865218 206.51077718 C221.15281299 206.50897448 217.45711333 206.51149786 213.76129723 206.52549171 C209.633483 206.54053845 205.50606041 206.53104145 201.37823486 206.51948547 C200.17316788 206.52712921 198.96810089 206.53477295 197.72651672 206.54264832 C183.51873676 206.45518317 172.88669468 203.33299514 162.70367432 193.27217102 C161.71655071 192.23804153 160.73418086 191.19921671 159.76617432 190.14717102 C157.78617432 191.13717102 157.78617432 191.13717102 155.76617432 192.14717102 C155.76617432 192.80717102 155.76617432 193.46717102 155.76617432 194.14717102 C155.10617432 194.14717102 154.44617432 194.14717102 153.76617432 194.14717102 C153.76617432 194.80717102 153.76617432 195.46717102 153.76617432 196.14717102 C153.10617432 196.14717102 152.44617432 196.14717102 151.76617432 196.14717102 C151.76617432 196.80717102 151.76617432 197.46717102 151.76617432 198.14717102 C150.06138841 199.11180077 148.3521602 200.06858156 146.64117432 201.02217102 C145.68984619 201.5558429 144.73851807 202.08951477 143.75836182 202.63935852 C138.71595826 205.18030861 134.37908534 206.39615926 128.72779846 206.41459656 C126.94705681 206.42739151 126.94705681 206.42739151 125.13034058 206.44044495 C123.84138885 206.43953857 122.55243713 206.4386322 121.22442627 206.43769836 C119.84238829 206.44368806 118.46035365 206.45049462 117.07832336 206.45805359 C113.33423984 206.47567992 109.59024781 206.48040765 105.84612679 206.48168516 C103.50253815 206.48310969 101.15897254 206.48738507 98.81538963 206.4926796 C90.62652493 206.51117156 82.43772522 206.51935161 74.24884033 206.51777649 C66.6371164 206.5165766 59.02567671 206.53765087 51.41402465 206.56926382 C44.86260478 206.59549555 38.31127731 206.60614085 31.75980538 206.60486567 C27.85431332 206.60435789 23.94907378 206.60993815 20.04363441 206.63122177 C16.36546675 206.65071998 12.68778941 206.65065066 9.0096035 206.63618851 C7.03292819 206.63313154 5.05625222 206.6496971 3.07965088 206.66706848 C-6.42866851 206.60066732 -13.82085789 204.4581218 -22.23382568 200.14717102 C-22.23382568 199.48717102 -22.23382568 198.82717102 -22.23382568 198.14717102 C-23.10007568 197.77592102 -23.10007568 197.77592102 -23.98382568 197.39717102 C-26.56322548 195.96417114 -28.2950416 194.36292426 -30.23382568 192.14717102 C-30.23382568 191.48717102 -30.23382568 190.82717102 -30.23382568 190.14717102 C-30.89382568 190.14717102 -31.55382568 190.14717102 -32.23382568 190.14717102 C-32.89382568 188.16717102 -33.55382568 186.18717102 -34.23382568 184.14717102 C-34.89382568 184.14717102 -35.55382568 184.14717102 -36.23382568 184.14717102 C-39.26417487 176.13623773 -39.65771356 168.79264136 -39.60614014 160.28730774 C-39.60857335 158.91951725 -39.61229778 157.55172856 -39.61720276 156.1839447 C-39.62654128 152.49807022 -39.61724716 148.81246457 -39.60387063 145.12661123 C-39.59248298 141.25464984 -39.59666914 137.38270028 -39.59861755 133.51072693 C-39.59949802 127.01303256 -39.58847036 120.51544302 -39.57000732 114.01777649 C-39.54882567 106.5207285 -39.54533512 99.02383375 -39.55156928 91.52676189 C-39.5572758 84.29191572 -39.55160326 77.05712314 -39.54039574 69.8222847 C-39.53576861 66.753109 -39.53486766 63.68396628 -39.53698158 60.61478806 C-39.53887373 56.998229 -39.53068988 53.38182456 -39.51492119 49.76530075 C-39.5086987 47.81555403 -39.51217164 45.8657838 -39.51599121 43.91603088 C-39.4642172 35.33287944 -38.67355837 28.3487698 -34.60882568 20.64717102 C-34.16281006 19.79123352 -33.71679443 18.93529602 -33.25726318 18.05342102 C-32.91952881 17.42435852 -32.58179443 16.79529602 -32.23382568 16.14717102 C-31.57382568 16.14717102 -30.91382568 16.14717102 -30.23382568 16.14717102 C-30.23382568 15.48717102 -30.23382568 14.82717102 -30.23382568 14.14717102 C-29.57382568 14.14717102 -28.91382568 14.14717102 -28.23382568 14.14717102 C-28.23382568 13.48717102 -28.23382568 12.82717102 -28.23382568 12.14717102 C-27.57382568 12.14717102 -26.91382568 12.14717102 -26.23382568 12.14717102 C-26.23382568 11.48717102 -26.23382568 10.82717102 -26.23382568 10.14717102 C-25.57382568 10.14717102 -24.91382568 10.14717102 -24.23382568 10.14717102 C-24.23382568 9.48717102 -24.23382568 8.82717102 -24.23382568 8.14717102 C-18.30038441 3.73158681 -13.49167554 2.12418927 -6.23382568 1.14717102 C-4.52915412 -0.55750054 -2.33174268 0.01004017 0 0 Z " fill="#FEC504" transform="translate(68.23382568359375,47.85282897949219)"/>
<path d="M0 0 C1.19979492 -0.00860046 2.39958984 -0.01720093 3.63574219 -0.02606201 C4.94901489 -0.03032196 6.2622876 -0.03458191 7.61535645 -0.03897095 C9.01517946 -0.04687658 10.41500045 -0.05514582 11.81481934 -0.06375122 C16.41042141 -0.08992834 21.00603236 -0.10527928 25.60168457 -0.11953735 C27.18758652 -0.1248997 28.77348841 -0.13027721 30.35939026 -0.13566971 C36.96142539 -0.15729633 43.56345814 -0.17602892 50.16551971 -0.1872921 C59.60427614 -0.20350388 69.04261915 -0.23661633 78.48121977 -0.29369295 C85.12941588 -0.33251354 91.77750202 -0.35193933 98.42580843 -0.35721266 C102.39013459 -0.36085095 106.3540194 -0.37270755 110.31822205 -0.4053154 C114.05468621 -0.43560883 117.79044695 -0.44163338 121.52700806 -0.42993164 C123.53337234 -0.42960913 125.53969459 -0.4539348 127.54589844 -0.47930908 C139.81522377 -0.39581265 149.14843057 3.22929277 158.00402832 11.7437439 C161.09456532 15.24257202 163.19507531 18.93098183 165.13293457 23.15390015 C165.48355957 23.77651733 165.83418457 24.39913452 166.19543457 25.0406189 C168.17296215 29.49829564 168.26027838 34.28948984 168.28683472 39.10289001 C168.29543518 40.27033249 168.30403564 41.43777496 168.31289673 42.64059448 C168.31928665 44.54125671 168.31928665 44.54125671 168.32580566 46.48031616 C168.3337167 47.83940332 168.34198625 49.19848843 168.35058594 50.55757141 C168.37669422 55.00762965 168.39210414 59.45769676 168.40637207 63.9078064 C168.41173669 65.4460189 168.41711421 66.98423136 168.42250443 68.52244377 C168.44411832 74.92639764 168.46285065 81.33034911 168.47412682 87.73433018 C168.49034006 96.87863933 168.52347074 106.02252194 168.58052766 115.16667038 C168.61937351 121.61449943 168.63877682 128.0622151 168.64404738 134.510158 C168.64768139 138.35209057 168.659492 142.19356706 168.69215012 146.03537178 C168.72248979 149.6561425 168.72845216 153.27618735 168.71676636 156.89705849 C168.71644461 158.83761072 168.74073738 160.77811992 168.7661438 162.71850586 C168.68703697 174.0083235 165.91812812 184.27027487 157.88293457 192.51327515 C157.30543457 193.0546814 156.72793457 193.59608765 156.13293457 194.15390015 C155.63793457 194.6334314 155.14293457 195.11296265 154.63293457 195.60702515 C144.59201758 204.66567852 132.84574217 205.45502067 119.90905762 205.42855835 C118.61028687 205.43366928 117.31151611 205.43878021 115.97338867 205.44404602 C112.43394353 205.4573547 108.89460571 205.45802371 105.35514045 205.45548272 C102.38832944 205.45440722 99.42153963 205.45931122 96.45473319 205.46408814 C89.44811793 205.47515574 82.44155628 205.4756366 75.43493652 205.46957397 C68.23503924 205.46353934 61.03533763 205.47583847 53.83547372 205.49714404 C47.62877407 205.51482737 41.42213632 205.52075075 35.21541244 205.5175063 C31.51957325 205.51570361 27.82387359 205.51822698 24.12805748 205.53222084 C20.00024326 205.54726758 15.87282066 205.53777057 11.74499512 205.5262146 C9.93739464 205.53768021 9.93739464 205.53768021 8.09327698 205.54937744 C-6.15766965 205.46164656 -16.42785348 202.15545002 -26.99206543 192.59140015 C-29.84615317 189.57214529 -29.84615317 189.57214529 -29.99206543 186.65390015 C-29.62081543 185.82890015 -29.24956543 185.00390015 -28.86706543 184.15390015 C-28.12456543 182.39046265 -28.12456543 182.39046265 -27.36706543 180.59140015 C-26.87206543 179.45702515 -26.37706543 178.32265015 -25.86706543 177.15390015 C-24.82516078 173.85204658 -24.73423663 170.81007164 -24.71989441 167.35603333 C-24.71273911 166.17162155 -24.7055838 164.98720978 -24.69821167 163.76690674 C-24.69552277 162.47076447 -24.69283386 161.17462219 -24.69006348 159.83920288 C-24.68379535 158.45746186 -24.67714824 157.07572251 -24.67015076 155.69398499 C-24.64914248 151.15849982 -24.63874866 146.62301445 -24.62878418 142.0874939 C-24.62473486 140.52261907 -24.62061788 138.95774442 -24.6164341 137.39286995 C-24.59738638 130.03682831 -24.58315671 122.68079666 -24.57482213 115.32473511 C-24.56506295 106.85252113 -24.53877638 98.38056935 -24.49832124 89.90844768 C-24.46808009 83.34858692 -24.45334554 76.78880095 -24.45004112 70.22887188 C-24.44769897 66.31662637 -24.4388488 62.40466107 -24.41357994 58.49249077 C-24.39015475 54.80616374 -24.38612322 51.1202985 -24.39634132 47.43391609 C-24.39706617 45.45243474 -24.37807525 43.47097608 -24.35827637 41.48959351 C-24.39836663 34.53740736 -25.17723358 28.96810098 -27.91093159 22.54849339 C-28.90297547 20.0639651 -29.52833563 17.80741147 -29.86706543 15.15390015 C-25.36530371 7.73671178 -16.11442618 3.09623913 -8.06285858 0.59296227 C-5.33911355 0.04833298 -2.77882142 0.01485128 0 0 Z " fill="#0348B7" transform="translate(257.8670654296875,48.846099853515625)"/>
<path d="M0 0 C1.505839 -0.00639748 1.505839 -0.00639748 3.042099 -0.01292419 C4.13731369 -0.01247101 5.23252838 -0.01201782 6.3609314 -0.0115509 C7.51897781 -0.01490952 8.67702423 -0.01826813 9.87016296 -0.02172852 C13.70222034 -0.03123652 17.53423405 -0.03318129 21.36630249 -0.03425598 C23.35242675 -0.03665632 25.33855103 -0.03905828 27.32467496 -0.0417164 C33.56609311 -0.04985278 39.80749684 -0.05230124 46.04891968 -0.05158997 C52.49281256 -0.05098819 58.93662201 -0.06156171 65.38049376 -0.07733363 C70.91177408 -0.09039068 76.44302705 -0.09577469 81.97432268 -0.09513456 C85.27865816 -0.09487919 88.58290235 -0.09866563 91.8872261 -0.10831261 C95.56733497 -0.11805387 99.24722566 -0.11525815 102.92733765 -0.10920715 C104.0266008 -0.11482666 105.12586395 -0.12044617 106.25843811 -0.12623596 C107.75581764 -0.11994423 107.75581764 -0.11994423 109.28344727 -0.11352539 C110.15395533 -0.11407016 111.02446339 -0.11461493 111.92135048 -0.1151762 C114.01473999 0.13371277 114.01473999 0.13371277 116.01473999 2.13371277 C116.01473999 4.77371277 116.01473999 7.41371277 116.01473999 10.13371277 C81.03473999 10.46371277 46.05473999 10.79371277 10.01473999 11.13371277 C10.50973999 29.44871277 10.50973999 29.44871277 11.01473999 48.13371277 C23.22473999 48.13371277 35.43473999 48.13371277 48.01473999 48.13371277 C48.34473999 38.56371277 48.67473999 28.99371277 49.01473999 19.13371277 C54.29473999 19.13371277 59.57473999 19.13371277 65.01473999 19.13371277 C65.01473999 19.79371277 65.01473999 20.45371277 65.01473999 21.13371277 C66.33473999 21.79371277 67.65473999 22.45371277 69.01473999 23.13371277 C69.34473999 31.71371277 69.67473999 40.29371277 70.01473999 49.13371277 C84.86473999 49.13371277 99.71473999 49.13371277 115.01473999 49.13371277 C115.01473999 52.43371277 115.01473999 55.73371277 115.01473999 59.13371277 C100.49473999 59.13371277 85.97473999 59.13371277 71.01473999 59.13371277 C71.01473999 59.79371277 71.01473999 60.45371277 71.01473999 61.13371277 C70.35473999 61.13371277 69.69473999 61.13371277 69.01473999 61.13371277 C69.03028427 61.6966806 69.04582855 62.25964844 69.06184387 62.8396759 C69.21700057 68.71194784 69.32240217 74.58363569 69.39926147 80.45744324 C69.43441196 82.64778807 69.48214321 84.83796926 69.54281616 87.02775574 C69.62797212 90.18067299 69.66748244 93.33141588 69.69833374 96.48527527 C69.73446274 97.4605014 69.77059174 98.43572754 69.80781555 99.44050598 C69.80996031 103.17455693 69.80928317 105.97775123 67.65368652 109.11387634 C64.66376642 111.95644315 62.59417982 113.0374603 58.48739624 113.71965027 C57.36204468 113.65004089 56.23669312 113.58043152 55.07723999 113.50871277 C53.36214233 113.42750183 53.36214233 113.42750183 51.61239624 113.34465027 C50.75516968 113.27504089 49.89794312 113.20543152 49.01473999 113.13371277 C49.00443253 112.48447342 48.99412506 111.83523407 48.98350525 111.1663208 C48.87567863 104.43472225 48.76106218 97.70326407 48.64242554 90.97184753 C48.59899993 88.45657781 48.5573307 85.94127714 48.51742554 83.4259491 C48.45990706 79.81932733 48.39616032 76.21286246 48.33114624 72.60636902 C48.31443375 71.47409378 48.29772125 70.34181854 48.28050232 69.17523193 C48.25058449 67.61372658 48.25058449 67.61372658 48.22006226 66.02067566 C48.19674583 64.63834496 48.19674583 64.63834496 48.17295837 63.22808838 C48.24451243 61.14620805 48.24451243 61.14620805 47.01473999 60.13371277 C45.34303965 60.02639461 43.666893 59.98747525 41.99179077 59.97599792 C40.92042877 59.96573578 39.84906677 59.95547363 38.74523926 59.94490051 C37.57862762 59.93759918 36.41201599 59.93029785 35.21005249 59.92277527 C32.76603535 59.89470927 30.32202501 59.86604482 27.87802124 59.83683777 C24.00448781 59.79552008 20.1310819 59.75865397 16.25741577 59.73234558 C12.53302367 59.70482427 8.80921996 59.65895164 5.08505249 59.61027527 C3.34120773 59.60539597 3.34120773 59.60539597 1.56213379 59.60041809 C-0.05436569 59.57556839 -0.05436569 59.57556839 -1.70352173 59.55021667 C-2.65314789 59.54212982 -3.60277405 59.53404297 -4.58117676 59.52571106 C-7.42542576 59.06194145 -8.28686208 58.42343564 -9.98526001 56.13371277 C-10.94316779 53.25998942 -11.11687886 51.43573077 -11.13052368 48.45036316 C-11.13690353 47.50250443 -11.14328339 46.55464569 -11.14985657 45.57806396 C-11.1515258 44.04519997 -11.1515258 44.04519997 -11.15322876 42.48136902 C-11.15655716 41.4296904 -11.15988556 40.37801178 -11.16331482 39.29446411 C-11.16837927 37.06941668 -11.17072329 34.84436166 -11.17056274 32.61930847 C-11.17274912 29.21317554 -11.19090981 25.8073665 -11.20986938 22.40129089 C-11.2128034 20.24048471 -11.21478814 18.07967699 -11.21572876 15.91886902 C-11.22291428 14.89898392 -11.23009979 13.87909882 -11.23750305 12.82830811 C-11.23442642 11.87729721 -11.23134979 10.92628632 -11.22817993 9.94645691 C-11.22960495 9.11167313 -11.23102997 8.27688934 -11.23249817 7.41680908 C-10.95231237 4.82946108 -10.48117691 3.26792451 -8.98526001 1.13371277 C-5.97556346 0.10795049 -3.16173395 0.00608149 0 0 Z " fill="#FDFCF4" transform="translate(78.98526000976563,94.86628723144531)"/>
<path d="M0 0 C1.15798096 0.00135956 1.15798096 0.00135956 2.33935547 0.00274658 C3.15252228 -0.00397064 3.96568909 -0.01068787 4.80349731 -0.01760864 C7.50057023 -0.03665801 10.19739519 -0.04051641 12.89453125 -0.04266357 C14.76539209 -0.04908707 16.6362519 -0.05581509 18.5071106 -0.06283569 C22.43298675 -0.07482609 26.35877479 -0.07851475 30.28466797 -0.07733154 C35.31775231 -0.07712834 40.35027206 -0.10442371 45.38322258 -0.13887596 C49.24881591 -0.16110431 53.11427255 -0.16517032 56.97992325 -0.16411209 C58.83550079 -0.16647445 60.69108175 -0.17533355 62.54659653 -0.19077682 C65.14198149 -0.21035342 67.73613861 -0.20463191 70.33154297 -0.19256592 C71.09948181 -0.20380493 71.86742065 -0.21504395 72.65863037 -0.22662354 C76.14258017 -0.18542409 78.1061837 0.0275958 80.94181824 2.12809753 C83.08072155 5.16882332 82.96662231 7.37672601 82.9609375 11.07061768 C82.96158203 12.38868408 82.96222656 13.70675049 82.96289062 15.0647583 C82.94730103 16.09089233 82.94730103 16.09089233 82.93139648 17.13775635 C82.90247931 19.22100786 82.91078402 21.30170545 82.92382812 23.3850708 C82.851477 34.77759045 82.851477 34.77759045 79.46484375 39.29327393 C76.73286949 40.65926106 74.52856986 40.44826525 71.47045898 40.48272705 C70.21253036 40.49944458 68.95460175 40.51616211 67.65855408 40.53338623 C66.98471113 40.54006821 66.31086819 40.54675018 65.61660576 40.55363464 C63.51157969 40.57464226 61.40670815 40.60166483 59.30177307 40.63031006 C54.07503924 40.70018379 48.84819582 40.7596156 43.62133789 40.81933594 C39.20392851 40.87019115 34.78660305 40.92498632 30.36931038 40.9851532 C28.29029427 41.01180781 26.21127066 41.0325717 24.13218689 41.05316162 C22.87741043 41.06987915 21.62263397 41.08659668 20.32983398 41.1038208 C18.66343117 41.12261292 18.66343117 41.12261292 16.96336365 41.14178467 C14.52456767 41.0125446 14.52456767 41.0125446 13.46484375 42.29327393 C13.36742847 44.25574322 13.33968236 46.22169903 13.33886719 48.18658447 C13.33506042 49.44847092 13.33125366 50.71035736 13.32733154 52.01048279 C13.32713768 52.68951345 13.32694382 53.36854412 13.32674408 54.06815147 C13.32333529 56.9187944 13.30197583 59.76920786 13.28151321 62.619771 C13.24347824 67.93048277 13.21222311 73.24095548 13.21435547 78.55181885 C13.21514429 82.24266231 13.19170242 85.93267432 13.15247345 89.62330055 C13.14203197 91.02780223 13.14047589 92.43240012 13.14812469 93.83691978 C13.20878317 106.21648092 13.20878317 106.21648092 10.11035156 110.14019775 C4.21247257 114.94025265 1.34051371 113.29327393 -7.53515625 113.29327393 C-7.53515625 82.60327393 -7.53515625 51.91327393 -7.53515625 20.29327393 C-1.92515625 20.29327393 3.68484375 20.29327393 9.46484375 20.29327393 C12.57036041 23.39879058 13.27808309 25.18525626 14.46484375 29.29327393 C20.99763161 29.31854395 27.53040696 29.33610685 34.06323242 29.34820557 C36.28752107 29.35324709 38.51180638 29.36008015 40.73608398 29.36871338 C43.92562684 29.38078691 47.11512604 29.38650388 50.3046875 29.39093018 C51.30572006 29.39609146 52.30675262 29.40125275 53.33811951 29.40657043 C54.7194381 29.40668373 54.7194381 29.40668373 56.12866211 29.40679932 C57.35110878 29.41013023 57.35110878 29.41013023 58.59825134 29.41352844 C60.47962231 29.49855638 60.47962231 29.49855638 61.46484375 28.29327393 C61.56465589 25.61596013 61.6036425 22.97023218 61.58984375 20.29327393 C61.59371094 19.54303955 61.59757812 18.79280518 61.6015625 18.01983643 C61.94159916 14.35721276 61.94159916 14.35721276 60.46484375 11.29327393 C58.34879279 11.1693571 56.22863092 11.11527487 54.10913086 11.08795166 C53.44574203 11.07805206 52.78235321 11.06815247 52.09886169 11.05795288 C49.8966738 11.02625655 47.6944643 11.00154859 45.4921875 10.97686768 C43.96903407 10.95630515 42.44588644 10.93530887 40.92274475 10.91389465 C36.90653161 10.85860145 32.89026637 10.8092243 28.8739624 10.76104736 C24.77855776 10.7108851 20.68322914 10.65517157 16.58789062 10.59991455 C8.5469392 10.49224439 0.50592434 10.39081926 -7.53515625 10.29327393 C-7.73046875 4.23858643 -7.73046875 4.23858643 -7.53515625 2.29327393 C-5.01462059 -0.22726174 -3.4397046 0.0416913 0 0 Z " fill="#F7FBFD" transform="translate(264.53515625,94.70672607421875)"/>
<path d="M0 0 C2.43934225 -0.13501894 4.87124104 -0.23403897 7.3125 -0.3125 C8.34793945 -0.3753418 8.34793945 -0.3753418 9.40429688 -0.43945312 C11.42578125 -0.48828125 11.42578125 -0.48828125 15 0 C16 1.66666667 17 3.33333333 18 5 C20.79707278 5.46517193 23.08149511 5.65520005 25.875 5.625 C30.97990446 5.625 34.81948169 5.74142109 39 9 C40.2400706 11.48014119 40.13356889 13.14685345 40.14526367 15.92114258 C40.15164352 16.94593216 40.15802338 17.97072174 40.16459656 19.02656555 C40.16570938 20.13799423 40.1668222 21.24942291 40.16796875 22.39453125 C40.17296135 24.10379036 40.17296135 24.10379036 40.17805481 25.84757996 C40.18312549 28.26272172 40.18546309 30.6778705 40.18530273 33.09301758 C40.18748478 36.78673901 40.20562703 40.48015975 40.22460938 44.17382812 C40.22754414 46.51822814 40.22952838 48.86262958 40.23046875 51.20703125 C40.23765427 52.31238724 40.24483978 53.41774323 40.25224304 54.55659485 C40.24916641 55.59084091 40.24608978 56.62508698 40.24291992 57.69067383 C40.24434494 58.59731277 40.24576996 59.50395172 40.24723816 60.43806458 C39.9709389 63.30113738 39.27911745 65.42905007 38 68 C33.51793698 70.24103151 28.01109879 69 23 69 C22.67 52.17 22.34 35.34 22 18 C20.35 18.33 18.7 18.66 17 19 C16.67 35.5 16.34 52 16 69 C10.72 69 5.44 69 0 69 C-0.33 51.84 -0.66 34.68 -1 17 C-2.32 17.33 -3.64 17.66 -5 18 C-5.33 34.83 -5.66 51.66 -6 69 C-10.62 69 -15.24 69 -20 69 C-23.70703267 65.29296733 -24.1216133 63.16411532 -24.16113281 58.14892578 C-24.17074036 57.16425323 -24.1803479 56.17958069 -24.19024658 55.16506958 C-24.19449646 54.10254974 -24.19874634 53.04002991 -24.203125 51.9453125 C-24.20882507 50.85161346 -24.21452515 49.75791443 -24.22039795 48.631073 C-24.22984787 46.31607023 -24.2363819 44.00105401 -24.24023438 41.68603516 C-24.24994263 38.14592016 -24.28096783 34.60638503 -24.3125 31.06640625 C-24.31902986 28.81771178 -24.3242804 26.56901316 -24.328125 24.3203125 C-24.3404718 23.26184113 -24.3528186 22.20336975 -24.36553955 21.11282349 C-24.34822986 15.39708123 -24.2577955 11.2577955 -20 7 C-17.18369776 6.78855708 -14.38282201 6.62371843 -11.5625 6.5 C-6.11495857 6.49062339 -6.11495857 6.49062339 -1 5 C-0.34444881 2.47266765 -0.34444881 2.47266765 0 0 Z " fill="#F7FAFD" transform="translate(307,138)"/>
<path d="M0 0 C5.61 0 11.22 0 17 0 C20.37521549 3.37521549 20.37521549 3.37521549 20.39440918 7.27536011 C20.40575897 8.14733032 20.41710876 9.01930054 20.42880249 9.91769409 C20.42440659 11.34844772 20.42440659 11.34844772 20.41992188 12.80810547 C20.42839142 13.81488342 20.43686096 14.82166138 20.44558716 15.85894775 C20.46903265 19.19515533 20.46997742 22.53090368 20.46875 25.8671875 C20.47584755 28.18262925 20.48354594 30.49806924 20.49182129 32.81350708 C20.50528387 37.67080572 20.50682709 42.5279418 20.50097656 47.38525391 C20.49508218 53.61215663 20.52565382 59.83827923 20.56609344 66.06503105 C20.5919356 70.84856373 20.59485092 75.63190778 20.59120178 80.41550064 C20.59289662 82.71124353 20.60257391 85.0069948 20.62034607 87.30266953 C20.64246354 90.51334641 20.63286909 93.72243435 20.61523438 96.93310547 C20.63512924 98.35778641 20.63512924 98.35778641 20.65542603 99.81124878 C20.64421722 100.68885864 20.63300842 101.56646851 20.62145996 102.47067261 C20.62217247 103.22909895 20.62288498 103.98752529 20.62361908 104.76893425 C20 107 20 107 15 112 C10.05 112 5.1 112 0 112 C0 75.04 0 38.08 0 0 Z " fill="#F6F9FD" transform="translate(379,95)"/>
<path d="M0 0 C7.51852321 8.03704206 7.4378907 17.42310121 7.38818359 27.89819336 C7.39225611 29.28229688 7.39760178 30.66639714 7.40411377 32.05049133 C7.41771381 35.78612999 7.4125189 39.52151824 7.40297651 43.2571609 C7.39534024 47.181584 7.40243662 51.10598676 7.40713501 55.03041077 C7.41258171 61.61984067 7.40543022 68.20916946 7.39111328 74.79858398 C7.3747956 82.39615329 7.38007317 89.99348093 7.3965925 97.59104437 C7.41024652 104.1348733 7.41210776 110.67862985 7.40427649 117.22246844 C7.39962055 121.12167444 7.39891729 125.0207672 7.40888596 128.91996574 C7.41761039 132.58827728 7.41143494 136.25628013 7.39420319 139.92455864 C7.38840294 141.89779115 7.39720741 143.87105005 7.40658569 145.8442688 C7.34086878 155.13182911 6.75339348 164.01373088 0 171 C-0.79423861 169.43880578 -1.58527123 167.87598036 -2.375 166.3125 C-3.03628906 165.00732422 -3.03628906 165.00732422 -3.7109375 163.67578125 C-5.98871698 158.94766323 -7.25014087 155.39152485 -7.27415466 150.08860779 C-7.28412979 148.90426651 -7.29410492 147.71992523 -7.30438232 146.49969482 C-7.305047 145.20871887 -7.30571167 143.91774292 -7.30639648 142.58764648 C-7.31402249 141.20737766 -7.32245075 139.82711308 -7.33161926 138.44685364 C-7.35353626 134.7026535 -7.36236015 130.95853502 -7.36744571 127.21427798 C-7.37109464 124.87051925 -7.3773377 122.52678171 -7.3844471 120.18303108 C-7.40893841 111.99302359 -7.42199139 103.80307934 -7.42553711 95.61303711 C-7.42916521 88.00186448 -7.45900895 80.39109687 -7.50094169 72.78004783 C-7.53575475 66.22948131 -7.5510875 59.6790482 -7.55178314 53.12838989 C-7.55257266 49.22334225 -7.56115882 45.31870676 -7.58978081 41.41375542 C-7.61614917 37.73388169 -7.61806392 34.05475614 -7.60212517 30.37483025 C-7.59947445 28.39950692 -7.6213693 26.42419693 -7.64431763 24.44900513 C-7.57440306 15.82694184 -6.39517102 6.39517102 0 0 Z " fill="#5EB35B" transform="translate(227,66)"/>
<path d="M0 0 C5.28 0 10.56 0 16 0 C20.31801491 4.31801491 20.50165887 4.54127672 20.53344727 10.15795898 C20.5492836 11.40282578 20.56511993 12.64769257 20.58143616 13.93028259 C20.5775944 15.28555679 20.5725552 16.64082805 20.56640625 17.99609375 C20.57164316 19.39087845 20.57791989 20.7856596 20.58518982 22.18043518 C20.59559077 25.10166097 20.59103826 28.02239957 20.57641602 30.94360352 C20.5592366 34.68098972 20.58271149 38.4168373 20.61790562 42.15405178 C20.63990455 45.03410463 20.63843225 47.91379078 20.6301403 50.79390144 C20.62932195 52.17137399 20.63616335 53.54887378 20.65091133 54.92626762 C20.66839569 56.85499263 20.65047237 58.78393948 20.63110352 60.71264648 C20.62966087 62.35667702 20.62966087 62.35667702 20.62818909 64.03392029 C19.79725352 67.95729491 18.02567181 69.46115838 15 72 C10.51793698 74.24103151 5.01109879 73 0 73 C0 48.91 0 24.82 0 0 Z " fill="#FBFDFD" transform="translate(353,108)"/>
<path d="M0 0 C0.99 0.66 1.98 1.32 3 2 C3 2.66 3 3.32 3 4 C3.66 4 4.32 4 5 4 C5 4.66 5 5.32 5 6 C5.66 6 6.32 6 7 6 C8.60725635 9.21451269 8.05748185 12.43612536 8 16 C7.34 16 6.68 16 6 16 C6 16.66 6 17.32 6 18 C5.34 18 4.68 18 4 18 C4 18.66 4 19.32 4 20 C3.34 20 2.68 20 2 20 C2 20.66 2 21.32 2 22 C1.34 22 0.68 22 0 22 C0 22.66 0 23.32 0 24 C-0.66 24 -1.32 24 -2 24 C-2 24.66 -2 25.32 -2 26 C-2.66 26 -3.32 26 -4 26 C-4 26.66 -4 27.32 -4 28 C-4.66 28 -5.32 28 -6 28 C-6 28.66 -6 29.32 -6 30 C-6.66 30 -7.32 30 -8 30 C-8 30.66 -8 31.32 -8 32 C-8.66 32 -9.32 32 -10 32 C-10 32.66 -10 33.32 -10 34 C-10.66 34 -11.32 34 -12 34 C-12 34.66 -12 35.32 -12 36 C-12.66 36 -13.32 36 -14 36 C-14 36.66 -14 37.32 -14 38 C-15.76953125 38.70703125 -15.76953125 38.70703125 -18 39 C-19.88671875 37.63671875 -19.88671875 37.63671875 -21.6875 35.6875 C-22.28949219 35.05199219 -22.89148438 34.41648438 -23.51171875 33.76171875 C-26.40224563 30.34012393 -26.68271648 27.21130167 -26.63378906 22.82519531 C-25.32464055 16.9894994 -20.59344841 13.33529579 -16.375 9.375 C-15.47136719 8.46621094 -14.56773438 7.55742187 -13.63671875 6.62109375 C-6.00694963 -0.78590839 -6.00694963 -0.78590839 0 0 Z " fill="#FDFDF8" transform="translate(92,168)"/>
<path d="M0 0 C2.76006856 1.00272154 3.83676918 1.89523488 6 4 C6.875 6.25 6.875 6.25 7 8 C7.66 8 8.32 8 9 8 C9.05423638 9.91635217 9.09289963 11.83314925 9.125 13.75 C9.14820313 14.81734375 9.17140625 15.8846875 9.1953125 16.984375 C9.00487687 19.92470106 8.52670104 21.52361878 7 24 C6.34 24 5.68 24 5 24 C4.7525 24.61875 4.505 25.2375 4.25 25.875 C2.73509663 28.45033573 1.74426182 28.90229527 -1 30 C-5.82353896 30.68452863 -10.41999524 30.80819351 -14.625 28.125 C-15.40875 27.42375 -16.1925 26.7225 -17 26 C-17 25.34 -17 24.68 -17 24 C-17.66 24 -18.32 24 -19 24 C-21.6384227 19.43794641 -21.55879686 15.15064928 -21 10 C-19.5 6.375 -19.5 6.375 -18 4 C-17.01 4 -16.02 4 -15 4 C-15 3.34 -15 2.68 -15 2 C-10.32469139 -1.1168724 -5.4736779 -0.5921393 0 0 Z " fill="#FDFDF9" transform="translate(185,174)"/>
<path d="M0 0 C0.66 0 1.32 0 2 0 C2 3.3 2 6.6 2 10 C-13.18 10 -28.36 10 -44 10 C-44 9.34 -44 8.68 -44 8 C-29.48 8 -14.96 8 0 8 C0 5.36 0 2.72 0 0 Z " fill="#F7D33E" transform="translate(194,146)"/>
<path d="M0 0 C5.28 0 10.56 0 16 0 C16 0.66 16 1.32 16 2 C11.38 2 6.76 2 2 2 C2 10.25 2 18.5 2 27 C1.34 27 0.68 27 0 27 C0 18.09 0 9.18 0 0 Z " fill="#F8F1C2" transform="translate(128,114)"/>
</svg>
