<svg width="600" height="600" viewBox="0 0 800 800" fill="none" xmlns="http://www.w3.org/2000/svg">
<path d="M232.56 247.665C233.443 246.516 234.823 247.28 235.825 247.791C239.939 249.964 243.793 252.592 247.906 254.771C250.787 256.292 253.576 258.002 256.063 260.118C254.417 262.339 252.826 264.596 251.347 266.929C263.274 267.455 275.222 267.357 287.156 267.343C293.183 267.238 299.231 266.761 305.243 267.42C304.655 275.226 303.449 282.991 302.153 290.713C279.623 291.141 257.079 290.657 234.557 290.966C231.817 290.804 230.345 293.355 228.867 295.205C225.012 300.699 220.485 305.661 216.435 311.001C237.437 311.246 258.446 311.05 279.448 311.113C285.986 311.33 292.573 310.65 299.09 311.316C299.805 313.664 298.761 316.172 298.572 318.576C291.803 367.195 285.159 415.842 278.285 464.441C269.413 464.616 260.534 464.462 251.663 464.525C253.155 451.939 255.054 439.402 256.764 426.844C257.374 423.39 257.675 419.893 257.591 416.389C246.673 415.863 235.72 416.347 224.788 416.186C217.262 416.27 209.729 416.025 202.202 416.256C199.455 432.268 197.619 448.435 195.188 464.504C186.414 464.511 177.647 464.532 168.874 464.49C169.547 453.13 171.817 441.925 173.17 430.629C176.835 404.735 180.247 378.807 183.989 352.928C182.49 354.35 180.766 357.167 178.383 355.682C171.221 351.701 164.228 347.405 156.926 343.691C158.797 340.293 161.663 337.609 163.828 334.413C172.21 323.67 180.948 313.215 189.189 302.367C191.992 298.527 195.51 295.163 197.591 290.832C194.613 289.788 191.446 290.118 188.362 290.258C182.798 290.608 177.22 290.692 171.649 290.755C171.677 286.074 172.777 281.498 173.219 276.852C173.499 273.692 174.088 270.58 174.627 267.462C177.556 267.161 180.5 266.971 183.45 266.985C193.029 266.992 202.602 266.698 212.181 266.663C213.926 266.614 215.713 266.642 217.402 266.158C220.289 263.622 222.181 260.195 224.704 257.336C227.409 254.182 229.672 250.657 232.56 247.665ZM213.352 334.126C212.56 340.272 211.628 346.389 210.857 352.535C229.581 352.479 248.306 352.717 267.023 352.416C268.103 346.333 268.782 340.181 269.539 334.049C250.808 333.986 232.076 333.846 213.352 334.126ZM207.556 375.24C206.862 381.238 205.846 387.188 205.265 393.194C209.883 393.775 214.536 393.565 219.182 393.586C231.565 393.586 243.947 393.565 256.33 393.6C258.068 393.579 259.805 393.355 261.536 393.145C262.349 387.195 262.973 381.224 263.87 375.289C260.899 374.897 257.899 374.981 254.914 374.974C242.307 374.953 229.693 374.953 217.087 374.967C213.905 374.953 210.717 374.847 207.556 375.24Z" fill="rgb(1, 137, 186)"/>
<path d="M373.63 257.721C376.65 254.203 379.776 250.769 383.146 247.588C385.592 249.074 387.87 250.811 390.077 252.633C394.87 256.551 399.965 260.09 404.695 264.084C402.151 267.406 398.97 270.16 396.258 273.334C390.266 280.188 384.015 286.796 378.003 293.628C372.768 298.87 367.905 304.455 362.992 309.998C370.932 315.387 379.25 320.201 387.071 325.759C380.89 331.337 375.936 338.064 370.329 344.189C362.151 353.025 354.156 362.044 346.146 371.028C344.955 374.069 345.347 377.545 344.969 380.769C342.565 408.61 340.407 436.459 337.982 464.293C332.964 464.707 327.926 464.44 322.894 464.503C318.739 464.426 314.52 464.763 310.435 463.796C312.166 440.958 314.45 418.155 316.307 395.317C309.762 390.334 302.418 386.48 295.922 381.42C298.648 377.363 302.25 373.999 305.438 370.313C311.731 364.224 317.442 357.573 323.56 351.309C331.381 342.745 339.552 334.518 347.421 326.004C344.219 322.731 339.825 321.112 336.209 318.386C332.649 315.71 328.571 313.859 324.976 311.239C327.576 306.761 331.801 303.6 335.011 299.599C348.136 285.878 360.603 271.54 373.63 257.721Z" fill="rgb(1, 137, 186)"/>
<path d="M45.5429 265.451C56.0824 260.153 68.0936 258.948 79.7263 258.597C92.8938 258.793 106.075 258.443 119.243 258.744C117.575 274.203 115.08 289.564 113.09 304.988C112.053 313.818 110.259 322.584 109.88 331.484C123.868 331.61 137.862 331.323 151.849 331.568C149.137 352.998 145.893 374.357 143.076 395.772C140.707 411.54 138.808 427.377 136.397 443.137C136.054 447.356 134.926 452.205 137.764 455.842C143.006 463.242 152.193 466.038 160.595 468.071C172.872 471.049 185.598 470.67 198.135 470.986C223.37 471.343 248.604 471.659 273.839 471.694C283.418 471.673 292.998 472.373 302.57 471.785C312.837 472.338 323.124 472.016 333.404 472.086C360.965 472.016 388.534 472.149 416.095 472.002C431.736 471.399 447.391 471.441 463.046 471.518C469.654 471.652 476.83 471.392 482.394 467.37C487.118 463.775 488.253 457.524 488.785 451.974C491.189 434.034 493.747 416.116 496.221 398.19C497.083 392.388 498.036 386.599 498.631 380.769C499.276 374.974 500.53 369.262 500.832 363.432C465.113 363.593 429.388 363.411 393.67 363.523C391.631 363.523 389.599 363.446 387.574 363.306C388.471 354.925 389.872 346.6 390.93 338.239C396.032 337.602 401.161 338.029 406.284 337.987C459.774 337.98 513.27 337.91 566.76 338.029C569.612 337.847 572.478 337.875 575.33 338.197C574.65 346.572 573.242 354.869 572.142 363.194C568.491 363.663 564.819 363.495 561.154 363.495C550.663 363.481 540.18 363.488 529.689 363.523C527.685 375.906 525.989 388.351 524.37 400.797C521.504 420.467 518.855 440.173 516.045 459.851C514.742 468.778 514.041 478.176 509.486 486.171C506.291 491.49 500.383 494.518 494.434 495.604C487.335 497.061 480.054 496.655 472.857 496.711C433.376 496.683 393.908 496.69 354.427 496.711C318.688 496.809 282.949 496.473 247.21 496.452C223.145 495.926 199.053 496.382 175.01 495.085C162.354 494.321 149.551 492.745 137.624 488.239C128.388 484.651 119.13 479.521 113.707 470.923C108.584 463.207 107.512 453.537 108.745 444.525C112.782 415.8 116.762 387.048 120.777 358.316C120.861 357.223 120.924 356.13 120.995 355.044C116.019 355.037 111.051 355.037 106.082 355.086C102.697 379.199 99.2848 403.313 96.0402 427.44C94.029 440.299 89.8384 453.817 79.5932 462.535C74.2814 466.41 68.8925 470.271 63.0621 473.347C58.8925 475.38 54.758 478.029 49.9647 478.099C48.1357 472.128 46.4118 466.129 44.4146 460.215C43.6368 457.994 43.0482 455.716 42.6908 453.397C51.2892 450.804 59.6704 446.403 65.1994 439.136C67.1896 436.298 68.6051 433.025 69.0677 429.577C74.3304 391.82 79.5441 354.056 84.8069 316.298C85.9141 306.333 88.0444 296.488 88.7032 286.474C81.1349 286.446 73.4685 286.614 66.1034 288.513C61.163 289.718 57.0495 293.713 55.7601 298.632C54.0502 304.925 53.8189 311.491 52.6417 317.882C48.8926 343.425 45.1785 368.982 41.6326 394.553C37.1267 425.029 32.908 455.555 28.8646 486.094C28.29 489.64 28.1078 493.235 27.5962 496.795C18.3951 496.893 9.19407 496.872 0 496.809C0.161177 490.768 1.49263 484.854 2.09529 478.862C9.86681 419.725 17.5893 360.594 25.7882 301.512C26.7903 294.645 27.8275 287.658 30.7217 281.288C33.9312 274.687 38.9977 268.891 45.5429 265.451Z" fill="rgb(1, 137, 186)"/>
<path d="M135.893 258.87C140.28 258.359 144.702 258.744 149.103 258.646C153.462 258.737 157.841 258.352 162.186 258.849C161.528 266.845 160.042 274.743 159.026 282.703C157.358 295.759 155.284 308.751 153.686 321.813C144.807 322.444 135.865 322.206 126.973 322.045C129.888 300.979 132.712 279.893 135.893 258.87Z" fill="rgb(1, 137, 186)"/>
<path d="M414.633 259.011C419.777 258.24 424.948 259.102 430.113 258.976C475.193 258.962 520.281 258.99 565.361 258.969C570.659 258.723 575.978 258.422 581.262 259.053C580.337 267.35 579.061 275.598 577.849 283.853C549.636 284.554 521.402 284.063 493.182 284.21C473.561 284.21 453.939 284.21 434.318 284.21C426.616 284.322 418.936 283.79 411.234 283.832C411.339 279.487 412.236 275.226 412.832 270.938C413.421 266.957 413.827 262.956 414.633 259.011Z" fill="rgb(1, 137, 186)"/>
<path d="M581.082 321.316C603.724 296.516 626.737 272.052 649.435 247.294C657.255 252.052 664.88 257.133 672.602 262.045C667.318 268.723 661.306 274.785 655.847 281.323C649.014 288.983 642.196 296.663 635.406 304.364C633.731 306.397 631.264 308.107 630.71 310.812C623.633 362.01 616.807 413.236 609.708 464.434C600.521 464.532 591.327 464.504 582.14 464.434C583.03 455.429 584.593 446.508 585.742 437.538C590.514 402.927 595.364 368.331 600.129 333.72C593.878 329.431 587.277 325.675 581.082 321.316Z" fill="rgb(1, 137, 186)"/>
<path d="M772.812 258.885C782.223 258.611 791.649 258.829 801.067 258.794C799.252 272.29 797.037 285.731 795.272 299.242C801.55 299.333 807.843 299.27 814.129 299.298V325.1C806.624 325.093 799.119 324.988 791.621 325.1C786.148 364.539 780.668 403.979 775.167 443.411C773.478 455.086 772.497 467.125 767.71 478.043C764.837 484.511 759.855 490.194 753.282 493.032C744.964 496.963 735.538 496.935 726.54 496.9C720.233 497.16 713.919 497.272 707.613 497.188C663.695 497.195 619.785 497.174 575.868 497.202C567.922 497.335 559.989 496.725 552.042 496.893C538.959 496.795 525.861 497.104 512.785 496.718C518.132 489.206 520.802 480.271 522.813 471.378C547.032 471.715 571.257 471.294 595.476 471.673C632.399 471.687 669.323 471.722 706.246 471.666C713.009 471.378 719.778 471.708 726.54 471.406C731.838 470.909 738.131 469.676 741.004 464.644C744.221 458.821 745.503 452.17 746.526 445.66C751.2 412.157 755.853 378.653 760.514 345.149C761.277 338.464 762.679 331.849 762.966 325.121C726.092 325.016 689.21 325.128 652.336 325.072C653.324 316.474 654.712 307.931 655.854 299.361C692.868 299.186 729.876 299.396 766.89 299.249C768.839 285.787 770.822 272.339 772.812 258.885Z" fill="rgb(1, 137, 186)"/>
<path d="M703.827 360.118C706.462 358.632 710.015 357.721 712.713 359.55C715.04 361.253 717.1 363.299 719.16 365.324C698.663 377.265 677.857 388.688 657.282 400.51C654.914 401.799 652.636 403.292 650.142 404.329C647.843 402.942 646.133 400.482 644.578 398.288C642.545 394.729 645.418 390.713 648.649 389.136C667.093 379.557 685.418 369.76 703.827 360.118Z" fill="rgb(1, 137, 186)"/>
<path d="M694.613 384.617C703.849 379.052 712.91 373.208 722.244 367.805C728.145 373.04 734.115 378.198 740.142 383.285C741.978 384.743 743.078 387.258 742.335 389.578C741.298 392.64 738.39 394.511 736.253 396.782C722.3 410.643 708.32 424.462 694.417 438.365C691.95 440.818 688.467 442.787 684.886 442.08C682.77 441.757 681.144 440.244 679.841 438.667C671.481 428.821 662.728 419.326 654.375 409.48C667.697 401.05 681.242 392.963 694.613 384.617Z" fill="rgb(1, 137, 186)"/>
<path d="M304.374 509.871C307.324 509.836 310.274 509.85 313.231 509.892C310.919 516.403 308.754 522.976 306.651 529.563C312.341 525.94 319.09 523.319 325.929 524.686C330.737 525.281 335.137 528.764 336.027 533.662C337.121 540.411 334.619 547.236 331.129 552.927C327.044 559.479 320.414 564.461 312.916 566.381C306.981 567.734 300.323 567.243 295.362 563.424C294.948 564.251 294.556 565.092 294.157 565.933C291.325 565.898 288.487 565.905 285.656 565.947C291.781 547.215 298.389 528.645 304.374 509.871ZM318.894 530.187C315.145 530.418 311.592 531.89 308.438 533.873C306.336 535.169 303.953 536.62 303.253 539.171C301.508 544.608 299.644 550.018 297.885 555.456C297.205 556.746 298.663 557.566 299.482 558.315C304.311 561.945 311.494 562.079 316.483 558.666C321.949 555.071 324.801 548.778 326.434 542.66C327.079 539.745 327.681 536.452 326.259 533.677C324.955 530.965 321.655 530.187 318.894 530.187Z" fill="rgb(1, 137, 186)"/>
<path d="M360.14 509.837C363.013 509.837 365.887 509.83 368.76 509.907C367.961 512.612 366.994 515.268 366.139 517.959C363.252 517.966 360.365 517.937 357.484 517.944C358.332 515.233 359.257 512.542 360.14 509.837Z" fill="rgb(1, 137, 186)"/>
<path d="M385.337 509.885C388.21 509.878 391.09 509.801 393.97 509.9C387.901 528.603 381.23 547.11 375.232 565.835C372.323 565.933 369.408 565.947 366.5 565.94C372.604 547.201 379.065 528.568 385.337 509.885Z" fill="rgb(1, 137, 186)"/>
<path d="M410.598 509.808C413.443 509.843 416.288 509.829 419.133 509.899C413.078 528.533 406.666 547.054 400.408 565.617C397.556 566.367 394.487 565.708 391.551 566.003C397.977 547.299 404.186 528.519 410.598 509.808Z" fill="rgb(1, 137, 186)"/>
<path d="M469.603 526.087C476.415 523.942 484.334 523.347 490.83 526.766C494.726 528.883 495.826 533.62 495.35 537.726C492.343 537.775 489.337 537.782 486.338 537.81C486.618 535.652 486.527 533.073 484.453 531.798C480.409 529.345 475.231 529.99 471.033 531.728C464.229 534.951 459.877 541.98 458.447 549.205C457.88 552.253 457.816 555.827 460.017 558.287C462.512 561.167 466.744 561.321 470.269 560.964C474.698 560.557 478.538 557.782 480.893 554.096C483.801 553.487 486.835 553.949 489.8 553.865C486.429 560.396 479.87 564.986 472.687 566.311C466.527 567.544 459.652 567.453 454.151 564.103C450.171 561.77 448.587 556.822 448.959 552.428C449.863 540.628 458.23 529.632 469.603 526.087Z" fill="rgb(1, 137, 186)"/>
<path d="M517.876 530.179C523.124 526.514 529.396 523.865 535.913 524.426C539.887 524.594 544.946 525.919 546.081 530.305C547.42 535.421 544.89 540.404 543.348 545.176C541.127 552.099 538.583 558.925 536.467 565.89C533.496 565.904 530.524 565.911 527.56 565.911C530.125 558.182 532.851 550.509 535.353 542.758C536.271 539.829 537.798 536.816 537.168 533.676C536.705 531.546 534.365 530.747 532.445 530.663C526.698 530.088 521.344 532.968 516.775 536.136C515.472 536.865 515.157 538.427 514.631 539.703C511.688 548.455 508.738 557.201 505.836 565.961C502.935 565.897 500.027 565.933 497.133 565.855C501.66 552.317 506.222 538.792 510.791 525.267C513.657 525.288 516.53 525.288 519.396 525.295C518.913 526.928 518.373 528.547 517.876 530.179Z" fill="rgb(1, 137, 186)"/>
<path d="M0.240251 525.26C3.42874 525.26 6.61724 525.274 9.80573 525.309C9.54645 535.554 8.64946 545.771 8.36215 556.017C15.2997 545.722 22.3284 535.491 29.3501 525.253C32.0131 525.295 34.683 525.274 37.3459 525.323C37.3179 535.575 37.6963 545.827 37.7103 556.08C44.0172 545.785 50.5554 535.631 56.7852 525.288C59.9737 525.281 63.1692 525.246 66.3577 525.358C57.1005 538.911 47.6472 552.331 38.4181 565.897C35.5519 565.89 32.6858 565.897 29.8267 565.947C29.7986 556.227 29.6865 546.507 29.5744 536.788C22.5947 546.276 16.2318 556.22 9.51841 565.897C6.63826 565.897 3.7511 565.954 0.870942 565.813C0.842911 552.296 0.198205 538.778 0.240251 525.26Z" fill="rgb(1, 137, 186)"/>
<path d="M71.1445 525.309C74.3891 525.246 77.6336 525.253 80.8782 525.316C80.2825 535.512 79.806 545.722 79.3015 555.925C86.3442 545.771 93.3028 535.568 100.205 525.323C102.896 525.239 105.587 525.232 108.285 525.302C108.397 535.568 108.573 545.834 108.594 556.1C115.034 545.897 121.418 535.659 127.71 525.365C130.906 525.281 134.101 525.281 137.297 525.309C128.229 538.862 118.671 552.092 109.575 565.624C106.722 566.269 103.737 565.792 100.836 565.918C100.745 556.142 100.626 546.36 100.64 536.584C93.7373 546.269 87.08 556.121 80.4507 565.988C77.5846 565.946 74.7184 565.953 71.8593 565.967C71.7262 552.414 71.2847 538.862 71.1445 525.309Z" fill="rgb(1, 137, 186)"/>
<path d="M142.047 525.274C145.298 525.295 148.543 525.239 151.795 525.295C151.409 535.393 150.582 545.47 150.435 555.568C157.52 545.624 164.338 535.484 171.143 525.351C173.841 525.295 176.539 525.274 179.237 525.232C179.356 535.505 179.496 545.771 179.573 556.045C185.985 545.884 192.397 535.722 198.606 525.435C201.808 525.295 205.018 525.26 208.22 525.288C199.215 538.939 189.685 552.247 180.358 565.68C177.569 566.213 174.682 565.841 171.851 565.841C171.724 556.101 171.584 546.353 171.5 536.612C164.822 546.227 158.312 555.968 151.591 565.554C148.781 566.346 145.705 565.687 142.797 565.968C142.804 552.401 142.306 538.834 142.047 525.274Z" fill="rgb(1, 137, 186)"/>
<path d="M243.695 525.33C246.849 525.266 250.002 525.231 253.163 525.337C253.793 535.827 254.508 546.311 255.118 556.801C262.868 546.318 270.759 535.932 278.327 525.323C281.523 525.351 284.718 525.301 287.921 525.287C277.704 538.602 267.241 551.72 256.884 564.923C256.428 565.617 255.784 565.946 254.957 565.904C252.665 566.002 250.374 565.897 248.082 565.848C246.779 552.33 245.272 538.819 243.695 525.33Z" fill="rgb(1, 137, 186)"/>
<path d="M354.867 525.393C357.782 525.281 360.697 525.267 363.612 525.26C359.176 538.827 354.418 552.289 350.038 565.87C347.109 565.919 344.18 565.919 341.258 565.926C345.792 552.408 350.333 538.904 354.867 525.393Z" fill="rgb(1, 137, 186)"/>
<path d="M209.77 558.119C212.944 558.013 216.126 558.056 219.3 558.063C218.431 560.613 217.597 563.178 216.826 565.764C213.638 565.981 210.442 565.897 207.254 565.939C208.13 563.339 209.041 560.753 209.77 558.119Z" fill="rgb(1, 137, 186)"/>
<path d="M421.27 558.056C424.458 558.049 427.64 558.056 430.828 558.063C429.882 560.691 429.013 563.354 428.116 566.01C424.998 565.94 421.872 565.919 418.754 565.863C419.609 563.27 420.527 560.691 421.27 558.056Z" fill="rgb(1, 137, 186)"/>
</svg>
